<?xml version="1.0" standalone="no"?> <!DOCTYPE svg PUBLIC "-//W3C//DTD SVG 1.0//EN" "http://www.w3.org/TR/2001/REC-SVG-20010904/DTD/svg10.dtd" > <svg xmlns="http://www.w3.org/2000/svg" width="100%" height="100%">
<defs >
<font id="helveticaneueitalic" horiz-adv-x="909" ><font-face
    font-family="Helvetica 55 Roman"
    units-per-em="2048"
    panose-1="2 11 5 0 0 0 0 0 0 0"
    ascent="1462"
    descent="-405"
    alphabetic="0" />
<missing-glyph horiz-adv-x="569" />
<glyph unicode=" " glyph-name="space" horiz-adv-x="569" />
<glyph unicode="!" glyph-name="exclam" horiz-adv-x="530" d="M0 0L49 227H276L227 0H0ZM516 1462L420 1006L236 375H141L229 1006L326 1462H516Z" />
<glyph unicode="&quot;" glyph-name="quotedbl" horiz-adv-x="872" d="M299 934V1462H438V934H299ZM586 934V1462H725V934H586Z" />
<glyph unicode="#" glyph-name="numbersign" horiz-adv-x="1138" d="M209 0L268 422H70L88 561H287L330 868H123L141 1008H350L410 1427H551L492 1008H741L801 1427H942L883 1008H1069L1051 868H864L821 561H1012L993 422H803L743 0H602L662 422H410L350 0H209ZM723
868H473L430 561H680L723 868Z" />
<glyph unicode="$" glyph-name="dollar" horiz-adv-x="1138" d="M530 856L629 1343Q589 1343 549 1336T467 1309T392 1262T338 1187T317 1083Q317 1006 370 951T504 868L530 856ZM600 659L489 119Q516 110 554 115T635 129T720 164T796 220T851 299T872 403Q872
435 868 461T854 508T834 544T805 573T773 596T734 615T693 630T647 644T600 659ZM315 -199L352 -25Q160 7 65 138T-20 479H164Q149 182 385 133L496 684Q429 705 382 724T284 775T203 844T153 938T133 1063Q133 1198 208 1303T403 1459T659 1497L686 1626H795L766
1485Q923 1442 1015 1327T1098 1030H913Q923 1270 735 1333L635 829L745 791Q898 747 977 654T1057 422Q1057 327 1021 246T924 108T786 15T625 -34T459 -35L424 -199H315Z" />
<glyph unicode="%" glyph-name="percent" horiz-adv-x="1896" d="M301 938Q301 841 338 793T463 745Q526 745 574 785T649 891T687 1026T700 1165Q700 1339 551 1339Q488 1339 438 1297T359 1190T316 1060T301 938ZM428 -57L1319 1485H1450L559 -57H428ZM1051
272Q1051 359 1074 448T1140 616T1259 745T1430 795Q1576 795 1652 720T1729 498Q1729 406 1707 317T1640 150T1520 23T1346 -25Q1209 -25 1130 54T1051 272ZM1190 281Q1190 184 1227 136T1352 88Q1415 88 1463 128T1538 234T1576 369T1589 508Q1589 682 1440 682Q1377
682 1327 640T1248 533T1205 403T1190 281ZM162 930Q162 1017 185 1105T251 1273T370 1402T541 1452Q687 1452 763 1377T840 1155Q840 1063 818 975T751 808T631 681T457 633Q320 633 241 712T162 930Z" />
<glyph unicode="&amp;" glyph-name="ampersand" horiz-adv-x="1290" d="M786 266L526 692Q477 667 441 646T359 592T286 524T237 444T217 346Q217 252 292 191T469 129Q562 129 632 162T786 266ZM958 0L868 152Q686 -25 451 -25Q275 -25 159 78T43 354Q43 413
59 465T107 561T173 639T260 707T352 763T451 815Q414 873 393 912T351 1014T330 1139Q330 1283 432 1372T694 1462Q759 1462 818 1445T924 1394T1000 1306T1028 1184Q1028 1134 1014 1089T970 1004T911 934T833 871T753 819T668 770L897 393Q944 457 981 538T1026
690H1194Q1164 553 1114 457T983 266L1157 0H958ZM504 1128Q504 1085 519 1039T549 967T596 889Q714 957 756 992Q854 1071 854 1157Q854 1225 808 1267T692 1309Q611 1309 558 1260T504 1128Z" />
<glyph unicode="&apos;" glyph-name="quotesingle" horiz-adv-x="569" d="M291 934V1462H430V934H291Z" />
<glyph unicode="(" glyph-name="parenleft" horiz-adv-x="530" d="M352 -406H238Q164 -242 118 -35T72 348Q72 484 99 614T170 854T285 1080T428 1291T600 1497H743Q246 905 246 274Q246 -99 352 -406Z" />
<glyph unicode=")" glyph-name="parenright" horiz-adv-x="530" d="M-96 -406H-240Q258 182 258 815Q258 1187 152 1497H266Q340 1326 386 1122T432 741Q432 572 394 416T279 117T115 -147T-96 -406Z" />
<glyph unicode="*" glyph-name="asterisk" horiz-adv-x="720" d="M557 1462L506 1231L731 1253L741 1155L522 1126L623 922L522 874L426 1085L266 907L190 983L348 1155L154 1253L205 1348L401 1247L446 1462H557Z" />
<glyph unicode="+" glyph-name="plus" horiz-adv-x="1228" d="M684 1036V588H1130V449H684V0H545V449H98V588H545V1036H684Z" />
<glyph unicode="," glyph-name="comma" horiz-adv-x="569" d="M31 0L80 227H307Q299 194 289 141T272 51T252 -33T225 -114T187 -182T134 -240T62 -279T-33 -301L-12 -203Q19 -198 43 -183T82 -152T110 -105T129 -56T145 0H31Z" />
<glyph unicode="-" glyph-name="hyphen" horiz-adv-x="796" d="M53 487L86 651H680L647 487H53Z" />
<glyph unicode="." glyph-name="period" horiz-adv-x="569" d="M31 0L80 227H307L258 0H31Z" />
<glyph unicode="/" glyph-name="slash" horiz-adv-x="681" d="M-37 -35L569 1497H719L113 -35H-37Z" />
<glyph unicode="0" glyph-name="zero" horiz-adv-x="1138" d="M51 539Q51 624 67 720T114 920T198 1118T318 1287T481 1407T686 1452Q881 1452 979 1321T1077 903Q1077 842 1068 768T1037 603T983 426T900 257T787 112T638 13T453 -25Q51 -25 51 539ZM236 510Q236
129 471 129Q548 129 614 173T725 289T803 442T856 609T884 755T893 854Q893 868 893 905T894 963T893 1021T888 1081T877 1136T858 1189T830 1232T791 1268T739 1289T672 1298Q582 1298 506 1236T382 1080T299 876T251 671T236 510Z" />
<glyph unicode="1" glyph-name="one" horiz-adv-x="1138" d="M887 1452L578 0H393L629 1104Q458 1063 254 1063L283 1202Q423 1202 557 1268T752 1452H887Z" />
<glyph unicode="2" glyph-name="two" horiz-adv-x="1138" d="M324 958H139Q163 1187 298 1319T662 1452Q841 1452 955 1348T1069 1065Q1069 1001 1051 942T1005 835T931 742T842 661T739 588T633 524T526 462T428 403Q235 281 190 154H946L913 0H-12Q-4 106 33
194T122 341T249 458T392 555T548 648T696 748Q756 792 794 831T858 928T885 1055Q885 1168 820 1233T641 1298Q501 1298 417 1201T324 958Z" />
<glyph unicode="3" glyph-name="three" horiz-adv-x="1138" d="M438 688L469 827Q531 824 582 827T689 847T782 892T845 973T870 1098Q870 1159 849 1200T791 1262T714 1290T625 1298Q501 1298 425 1225T330 1004H145Q159 1097 194 1175T286 1317T433 1416T635
1452Q832 1452 943 1361T1055 1090Q1055 969 978 880T795 758Q983 675 983 457Q983 395 964 330T902 201T800 87T652 6T459 -25Q237 -25 118 93T2 449H186Q184 399 190 355T215 269T264 196T345 148T463 129Q611 129 705 216T799 449Q799 513 778 558T724 628T640
667T544 684T438 688Z" />
<glyph unicode="4" glyph-name="four" horiz-adv-x="1138" d="M793 1151L193 494H659L797 1151H793ZM555 0L629 340H-8L27 512L887 1452H1034L834 494H1026L995 340H803L729 0H555Z" />
<glyph unicode="5" glyph-name="five" horiz-adv-x="1138" d="M1071 1427L1040 1274H444L330 881L334 877Q433 956 590 956Q780 956 888 833T997 518Q997 401 956 295T834 113Q679 -25 451 -25Q250 -25 132 84T14 389H199Q199 262 264 196T461 129Q625 129 719
237T813 510Q813 650 739 726T524 803Q446 803 374 765T266 662H111L336 1427H1071Z" />
<glyph unicode="6" glyph-name="six" horiz-adv-x="1138" d="M829 500Q829 627 759 703T563 780Q414 780 329 678T244 422Q244 288 312 209T512 129Q588 129 650 160T750 243T808 361T829 500ZM1116 1075H932Q929 1298 707 1298Q650 1298 601 1280T515 1236T445
1164T390 1080T346 983T312 886T283 788H287Q333 860 420 897T604 934Q783 934 898 811T1014 508Q1014 357 952 237T771 46T496 -25Q385 -25 301 12T164 115T85 270T59 465Q59 610 92 773T182 1061Q237 1188 308 1272T487 1404T735 1452Q914 1452 1013 1352T1116
1075Z" />
<glyph unicode="7" glyph-name="seven" horiz-adv-x="1138" d="M1180 1427L1155 1282Q994 1132 842 909T578 453T397 0H199Q420 697 965 1274H209L244 1427H1180Z" />
<glyph unicode="8" glyph-name="eight" horiz-adv-x="1138" d="M397 1057Q397 948 464 895T643 842Q746 842 812 908T879 1077Q879 1185 818 1241T647 1298T467 1232T397 1057ZM510 129Q649 129 736 209T823 426Q823 544 752 616T555 688Q408 688 319 611T229
389Q229 263 306 196T510 129ZM213 1063Q213 1155 248 1229T345 1352T485 1426T655 1452Q763 1452 855 1411T1005 1285T1063 1092Q1063 973 991 883T803 766V762Q905 719 956 628T1008 420Q1008 290 939 187T760 30T522 -25Q444 -25 374 -10T244 39T139 120T70
236T45 387Q45 548 139 655T393 791V795Q315 829 264 904T213 1063Z" />
<glyph unicode="9" glyph-name="nine" horiz-adv-x="1138" d="M561 643Q710 643 794 746T879 1001Q879 1140 808 1219T598 1298Q526 1298 467 1265T371 1176T315 1056T295 924Q295 796 364 720T561 643ZM8 346H193Q193 241 245 185T403 129Q461 129 511 146T599
190T671 260T728 342T774 437T811 533T842 629L838 633Q790 561 702 525T518 489Q340 489 226 612T111 915Q111 1063 172 1184T350 1379T616 1452Q840 1452 951 1322T1063 965Q1063 821 1031 664T942 377Q899 279 853 209T743 84T596 2T406 -25Q219 -25 112 69T8
346Z" />
<glyph unicode=":" glyph-name="colon" horiz-adv-x="569" d="M31 0L76 227H307L260 0H31ZM479 1059L432 831H203L250 1059H479Z" />
<glyph unicode=";" glyph-name="semicolon" horiz-adv-x="569" d="M31 0L80 227H307Q299 194 289 141T272 51T252 -33T225 -114T187 -182T134 -240T62 -279T-33 -301L-12 -203Q19 -198 43 -183T82 -152T110 -105T129 -56T145 0H31ZM479 1059L430 831H203L252 1059H479Z" />
<glyph unicode="&lt;" glyph-name="less" horiz-adv-x="1228" d="M1135 1053V913L264 518L1135 123V-16L94 455V582L1135 1053Z" />
<glyph unicode="=" glyph-name="equal" horiz-adv-x="1228" d="M1130 795V655H98V795H1130ZM98 242V381H1130V242H98Z" />
<glyph unicode="&gt;" glyph-name="greater" horiz-adv-x="1228" d="M94 -16V123L965 518L94 913V1053L1135 582V455L94 -16Z" />
<glyph unicode="?" glyph-name="question" horiz-adv-x="1138" d="M350 999H176Q190 1208 327 1343T672 1479Q751 1479 825 1458T960 1397T1059 1291T1096 1141Q1096 1055 1071 985T1005 867T914 777T811 699T712 624T630 534T580 420L571 375H401Q432 549 504
639Q538 685 587 726T717 823Q805 885 858 953T911 1110Q911 1215 847 1270T676 1325Q535 1325 449 1234T350 999ZM297 0L346 227H573L524 0H297Z" />
<glyph unicode="@" glyph-name="at" horiz-adv-x="1638" d="M860 1034Q791 1034 728 993T624 887T557 748T532 606Q532 520 582 464T709 408Q793 408 868 482T985 657T1026 844Q1026 918 975 976T860 1034ZM1266 1135L1094 553Q1071 480 1071 449Q1071 385 1120
385Q1181 385 1247 456T1358 638T1403 856Q1403 974 1357 1074T1233 1242T1056 1346T848 1384Q719 1384 603 1332T405 1190T274 980T225 727Q225 548 311 399T542 164T858 78Q1004 78 1141 145T1366 326H1495Q1397 158 1225 62T854 -35Q695 -35 553 25T308 189T146
435T86 737Q86 892 146 1033T309 1275T552 1437T846 1497Q1035 1497 1193 1417T1447 1192T1542 866Q1542 763 1511 668T1429 503T1315 379T1187 299T1063 272Q1008 272 972 306T932 406H926Q874 346 808 307T672 268Q543 268 461 361T379 592Q379 699 414 803T510
989T663 1123T860 1174Q1024 1174 1090 1006L1137 1135H1266Z" />
<glyph unicode="A" glyph-name="A" horiz-adv-x="1366" d="M840 1290L449 604H952L844 1290H840ZM-113 0L768 1462H981L1245 0H1044L977 440H360L104 0H-113Z" />
<glyph unicode="B" glyph-name="B" horiz-adv-x="1402" d="M342 670L236 164H707Q737 164 767 167T841 179T921 208T990 259T1042 339T1061 453Q1061 507 1045 547T1002 610T935 647T854 665T760 670H342ZM14 0L319 1462H907Q1315 1462 1315 1112Q1315 985 1238
882T1036 760V756Q1137 726 1196 647T1255 453Q1255 316 1186 212T999 54T737 0H14ZM473 1298L375 834H809Q961 834 1040 905T1120 1112Q1120 1161 1101 1197T1055 1252T986 1282T911 1295T834 1298H473Z" />
<glyph unicode="C" glyph-name="C" horiz-adv-x="1478" d="M1157 494H1352Q1295 242 1132 104T705 -35Q406 -35 242 134T78 606Q78 748 113 880T217 1124T381 1319T606 1450T881 1497Q1000 1497 1101 1465T1277 1372T1395 1213T1438 991H1243Q1243 1158 1145 1245T881
1333Q762 1333 661 1291T490 1179T369 1014T296 817T272 606Q272 387 382 258T705 129Q881 129 995 224T1157 494Z" />
<glyph unicode="D" glyph-name="D" horiz-adv-x="1441" d="M14 0L324 1462H836Q1105 1462 1247 1315T1389 903Q1389 699 1330 530T1164 245T906 64T575 0H14ZM479 1298L240 164H578Q698 164 800 204T973 314T1095 476T1170 672T1194 883Q1194 1298 791 1298H479Z" />
<glyph unicode="E" glyph-name="E" horiz-adv-x="1251" d="M14 0L324 1462H1331L1298 1298H485L387 834H1145L1112 670H352L246 164H1069L1032 0H14Z" />
<glyph unicode="F" glyph-name="F" horiz-adv-x="1175" d="M14 0L319 1462H1282L1247 1298H479L383 834H1059L1024 670H348L209 0H14Z" />
<glyph unicode="G" glyph-name="G" horiz-adv-x="1554" d="M1153 0L1141 145Q1061 57 945 11T705 -35Q406 -35 242 134T78 606Q78 748 113 880T217 1124T381 1319T606 1450T881 1497Q1005 1497 1109 1468T1295 1380T1422 1227T1468 1008H1274Q1274 1089 1243 1152T1158
1254T1033 1313T881 1333Q762 1333 661 1291T490 1179T369 1014T296 817T272 606Q272 387 382 258T705 129Q818 129 907 163T1059 262T1164 412T1233 606H766L799 770H1436L1276 0H1153Z" />
<glyph unicode="H" glyph-name="H" horiz-adv-x="1478" d="M14 0L322 1462H518L385 834H1151L1282 1462H1477L1169 0H975L1116 670H350L209 0H14Z" />
<glyph unicode="I" glyph-name="I" horiz-adv-x="530" d="M14 0L322 1462H516L209 0H14Z" />
<glyph unicode="J" glyph-name="J" horiz-adv-x="1062" d="M1075 1462L844 360Q823 261 791 192T706 69T574 -9T387 -35Q206 -35 94 46T-18 276Q-18 379 0 479H197Q179 398 176 328Q176 129 391 129Q448 129 492 149T564 198T613 276T646 364T670 461L883 1462H1075Z" />
<glyph unicode="K" glyph-name="K" horiz-adv-x="1366" d="M14 0L324 1462H518L365 741L369 737L1196 1462H1456L752 860L1221 0H1006L606 741L313 494L209 0H14Z" />
<glyph unicode="L" glyph-name="L" horiz-adv-x="1138" d="M14 0L322 1462H516L246 164H1018L983 0H14Z" />
<glyph unicode="M" glyph-name="M" horiz-adv-x="1781" d="M14 0L322 1462H592L786 205H791L1513 1462H1784L1475 0H1288L1587 1280H1583L838 0H651L461 1280H457L201 0H14Z" />
<glyph unicode="N" glyph-name="N" horiz-adv-x="1478" d="M14 0L324 1462H532L1055 252H1059L1303 1462H1491L1182 0H973L455 1202H451L203 0H14Z" />
<glyph unicode="O" glyph-name="O" horiz-adv-x="1554" d="M78 606Q78 748 113 880T217 1124T381 1319T606 1450T881 1497Q1066 1497 1206 1411T1418 1178T1491 850Q1491 712 1457 582T1354 340T1193 145T973 13T705 -35Q406 -35 242 134T78 606ZM272 606Q272
387 382 258T705 129Q817 129 914 170T1081 282T1199 445T1272 641T1296 850Q1296 987 1250 1095T1108 1268T881 1333Q762 1333 661 1291T490 1179T369 1014T296 817T272 606Z" />
<glyph unicode="P" glyph-name="P" horiz-adv-x="1327" d="M14 0L319 1462H895Q1107 1462 1218 1360T1329 1059Q1329 1000 1313 941T1256 819T1153 708T993 629T770 598H336L209 0H14ZM483 1298L371 762H811Q964 762 1049 843T1135 1059Q1135 1185 1069 1241T895
1298H483Z" />
<glyph unicode="Q" glyph-name="Q" horiz-adv-x="1554" d="M1358 -37L1247 -152L1044 45Q890 -35 705 -35Q406 -35 242 134T78 606Q78 748 113 880T217 1124T381 1319T606 1450T881 1497Q1066 1497 1206 1411T1418 1178T1491 850Q1491 638 1409 449T1180 135L1358
-37ZM780 299L891 416L1053 258Q1170 359 1233 518T1296 850Q1296 987 1250 1095T1108 1268T881 1333Q762 1333 661 1291T490 1179T369 1014T296 817T272 606Q272 387 382 258T705 129Q823 129 913 172L780 299Z" />
<glyph unicode="R" glyph-name="R" horiz-adv-x="1402" d="M483 1298L375 788H813Q901 788 968 808T1073 859T1135 931T1166 1006T1174 1077Q1174 1130 1158 1170T1115 1234T1051 1273T973 1293T887 1298H483ZM14 0L324 1462H887Q986 1462 1068 1444T1219 1385T1328
1269T1368 1090Q1368 942 1276 830T1038 696V692Q1128 664 1163 579T1188 375Q1186 340 1172 254T1160 111T1190 0H987Q952 104 991 313Q1000 364 1002 406T1001 479T987 534T966 573T936 600T904 616T868 623T834 626T800 626T772 625H340L209 0H14Z" />
<glyph unicode="S" glyph-name="S" horiz-adv-x="1327" d="M1257 1030H1063Q1067 1194 979 1263T727 1333Q670 1333 614 1320T505 1279T421 1204T389 1094Q389 996 451 943T627 858L823 805Q901 784 957 759T1066 689T1148 574T1176 410Q1176 302 1125 215T990
74T807 -7T606 -35Q471 -35 364 -5T178 87T61 248T31 479H225Q221 383 247 314T326 205T450 147T614 129Q685 129 749 145T866 195T950 283T981 410Q981 464 962 504T904 572T823 617T721 651L522 705Q453 724 397 753T294 825T221 932T195 1073Q195 1155 225 1225T307
1345T427 1429T572 1480T727 1497Q838 1497 933 1469T1104 1386T1220 1240T1257 1030Z" />
<glyph unicode="T" glyph-name="T" horiz-adv-x="1175" d="M1337 1462L1300 1298H809L535 0H340L614 1298H123L158 1462H1337Z" />
<glyph unicode="U" glyph-name="U" horiz-adv-x="1478" d="M1491 1462L1309 586Q1259 359 1235 305Q1188 188 1099 110T902 -1T666 -35Q346 -35 209 130T135 602L317 1462H512L319 553Q271 343 361 236T666 129Q733 129 788 140T884 171T957 223T1012 290T1054
376T1086 474T1112 586L1296 1462H1491Z" />
<glyph unicode="V" glyph-name="V" horiz-adv-x="1251" d="M1415 1462L590 0H371L162 1462H360L510 190H514L1208 1462H1415Z" />
<glyph unicode="W" glyph-name="W" horiz-adv-x="1896" d="M2013 1462L1341 0H1139L1047 1262H1042L465 0H256L164 1462H356L408 231H412L973 1462H1194L1276 227H1280L1812 1462H2013Z" />
<glyph unicode="X" glyph-name="X" horiz-adv-x="1251" d="M-90 0L545 764L193 1462H401L672 885L1141 1462H1360L758 737L1128 0H928L633 618L133 0H-90Z" />
<glyph unicode="Y" glyph-name="Y" horiz-adv-x="1251" d="M395 0L520 588L135 1462H342L641 754L1196 1462H1421L713 588L586 0H395Z" />
<glyph unicode="Z" glyph-name="Z" horiz-adv-x="1251" d="M-78 0L-43 162L1055 1298H217L258 1462H1325L1290 1296L184 164H1118L1083 0H-78Z" />
<glyph unicode="[" glyph-name="bracketleft" horiz-adv-x="530" d="M-59 -406L334 1497H721L692 1364H471L135 -272H356L328 -406H-59Z" />
<glyph unicode="\" glyph-name="backslash" horiz-adv-x="681" d="M113 1497L719 -35H569L-37 1497H113Z" />
<glyph unicode="]" glyph-name="bracketright" horiz-adv-x="530" d="M518 1497L125 -406H-262L-233 -272H-12L324 1364H102L131 1497H518Z" />
<glyph unicode="^" glyph-name="asciicircum" horiz-adv-x="1228" d="M102 541L549 1427H680L1126 541H983L612 1278L248 541H102Z" />
<glyph unicode="_" glyph-name="underscore" horiz-adv-x="1024" d="M0 -256V-154H1024V-256H0Z" />
<glyph unicode="`" glyph-name="grave" horiz-adv-x="454" d="M362 1497L500 1204H362L156 1497H362Z" />
<glyph unicode="a" glyph-name="a" horiz-adv-x="1062" d="M154 276Q154 206 209 168T344 129Q551 129 641 268Q661 296 676 334T698 394T717 471T733 541H729Q711 530 685 521T637 506T577 494T519 485T451 477T389 469Q337 461 299 450T226 417T173 361T154
276ZM283 739H109Q125 853 192 932T355 1047T567 1083Q954 1083 954 813Q954 792 950 764T943 719T932 665T922 621L854 332Q851 318 843 287T830 229T825 180Q825 115 877 115Q892 115 932 129L905 0Q859 -25 799 -25Q727 -25 691 15T662 125L657 129Q600 52 516
14T303 -25Q160 -25 70 48T-20 274Q-20 337 -3 387T42 471T111 530T197 571T295 596T397 611T499 622Q509 623 514 623Q570 628 598 631T663 642T717 659T751 687T774 730T780 791Q780 832 761 860T708 903T640 924T567 930Q457 930 377 883T283 739Z" />
<glyph unicode="b" glyph-name="b" horiz-adv-x="1214" d="M930 627Q930 760 868 845T688 930Q600 930 527 896T404 806T321 680T271 536T256 393Q256 270 335 200T545 129Q635 129 710 177T832 301T904 461T930 627ZM-10 0L299 1462H473L360 928L365 924Q423
999 507 1041T688 1083Q894 1083 999 960T1104 627Q1104 527 1081 433T1010 255T897 110T740 11T545 -25Q407 -25 307 43T188 197H184L145 0H-10Z" />
<glyph unicode="c" glyph-name="c" horiz-adv-x="1099" d="M1026 723H852Q852 819 792 874T629 930Q551 930 483 901T367 822T285 708T234 573T217 432Q217 368 231 315T275 220T357 153T479 129Q589 129 669 188T788 346H963Q917 170 790 73T479 -25Q265 -25
154 95T43 432Q43 533 67 628T140 806T258 950T422 1047T629 1083Q813 1083 916 993T1026 723Z" />
<glyph unicode="d" glyph-name="d" horiz-adv-x="1214" d="M209 410Q209 276 276 203T481 129Q575 129 656 180T787 309T866 479T895 655Q895 777 825 853T629 930Q549 930 480 899T361 814T277 694T226 554T209 410ZM1241 1462L932 0H768L805 152H801Q725 53
644 14T451 -25Q252 -25 144 93T35 410Q35 532 75 651T189 866T375 1023T623 1083Q675 1083 724 1074T820 1044T902 986T952 897H956L1069 1462H1241Z" />
<glyph unicode="e" glyph-name="e" horiz-adv-x="1099" d="M225 631H840Q845 689 833 741T793 836T713 904T592 930Q448 930 358 848T225 631ZM997 477H201Q195 430 195 385Q195 267 276 198T469 129Q698 129 774 332H948Q908 161 778 68T469 -25Q368 -25 288
2T159 71T78 171T33 285T20 401Q20 549 64 678T183 895T357 1033T565 1083Q1014 1083 1014 614Q1014 547 997 477Z" />
<glyph unicode="f" glyph-name="f" horiz-adv-x="606" d="M47 0L244 905H63L94 1059H274Q281 1086 293 1138T312 1216T333 1285T362 1350T400 1401T453 1444T523 1469T616 1479Q701 1479 762 1462L733 1315Q690 1325 651 1325Q609 1325 578 1314T530 1286T499
1240T479 1186T464 1123T446 1059H649L621 905H416L221 0H47Z" />
<glyph unicode="g" glyph-name="g" horiz-adv-x="1175" d="M217 430Q217 309 285 227T477 145Q571 145 647 194T768 320T838 483T862 653Q862 781 794 855T592 930Q522 930 460 897T355 811T279 691T232 557T217 430ZM1130 1059L940 154Q893 -52 858 -135Q732
-430 377 -430Q293 -430 221 -412T88 -355T-7 -252T-45 -102H129Q141 -276 395 -276Q585 -276 676 -126Q721 -51 766 121Q768 126 774 150L770 154Q661 -8 440 -8Q249 -8 146 113T43 430Q43 524 67 618T138 795T251 943T405 1045T594 1083Q714 1083 810 1024T930
868V864H934L967 1059H1130Z" />
<glyph unicode="h" glyph-name="h" horiz-adv-x="1138" d="M-10 0L299 1462H473L348 903L352 899Q417 987 517 1035T729 1083Q879 1083 951 1017T1024 811Q1024 738 993 604L864 0H690L825 618Q850 726 850 782Q850 854 799 892T666 930Q596 930 525 896T403 807Q328
742 287 586L164 0H-10Z" />
<glyph unicode="i" glyph-name="i" horiz-adv-x="454" d="M-10 0L211 1059H385L164 0H-10ZM471 1462L426 1249H250L295 1462H471Z" />
<glyph unicode="j" glyph-name="j" horiz-adv-x="454" d="M-246 -393L-215 -240Q-171 -252 -147 -252Q-93 -252 -69 -212T-20 -53L211 1059H385L119 -199Q70 -406 -131 -406Q-198 -406 -246 -393ZM471 1462L426 1249H250L295 1462H471Z" />
<glyph unicode="k" glyph-name="k" horiz-adv-x="985" d="M-10 0L299 1462H471L289 602L293 598L825 1059H1053L592 668L854 0H659L453 563L244 377L164 0H-10Z" />
<glyph unicode="l" glyph-name="l" horiz-adv-x="454" d="M-10 0L297 1462H471L164 0H-10Z" />
<glyph unicode="m" glyph-name="m" horiz-adv-x="1744" d="M-10 0L215 1059H377L338 901L342 897Q412 983 508 1033T711 1083Q934 1083 977 893Q1039 979 1137 1031T1339 1083Q1464 1083 1549 1025T1634 846Q1634 761 1604 635L1470 0H1296L1444 672Q1460 738
1460 786Q1460 848 1414 889T1298 930T1154 888T1032 784Q993 742 972 685T934 547L817 0H643L770 604Q803 754 803 791Q803 857 765 893T655 930Q587 930 517 891T395 795Q345 745 324 695T283 555L164 0H-10Z" />
<glyph unicode="n" glyph-name="n" horiz-adv-x="1138" d="M-10 0L213 1059H381L348 899H352Q417 987 517 1035T729 1083Q879 1083 951 1017T1024 811Q1024 738 993 604L864 0H690L825 618Q850 726 850 782Q850 854 799 892T666 930Q596 930 525 896T403 807Q328
742 287 586L164 0H-10Z" />
<glyph unicode="o" glyph-name="o" horiz-adv-x="1175" d="M209 420Q209 286 284 208T500 129Q573 129 638 161T748 245T827 364T877 498T893 631Q893 763 822 846T614 930Q519 930 440 882T311 757T236 593T209 420ZM35 418Q35 522 60 620T137 801T258 948T423
1047T627 1083Q839 1083 953 970T1067 645Q1067 514 1027 394T914 181T729 31T481 -25Q276 -25 156 98T35 418Z" />
<glyph unicode="p" glyph-name="p" horiz-adv-x="1214" d="M932 649Q932 783 865 856T659 930Q583 930 515 897T399 809T316 685T263 543T246 403Q246 282 316 206T512 129Q592 129 661 160T779 245T863 365T915 505T932 649ZM-100 -406L209 1059H373L336 907H340Q415
1006 497 1044T690 1083Q889 1083 997 965T1106 649Q1106 527 1066 408T952 192T766 35T518 -25Q447 -25 384 -9T264 51T188 162H184L72 -406H-100Z" />
<glyph unicode="q" glyph-name="q" horiz-adv-x="1214" d="M1149 1059L840 -406H664L778 135H774Q712 59 625 17T440 -25Q241 -25 138 101T35 434Q35 557 73 673T181 880T358 1027T592 1083Q859 1083 934 891H938L973 1059H1149ZM209 434Q209 300 276 215T479
129Q559 129 627 163T742 254T820 382T868 527T883 670Q883 790 810 860T610 930Q517 930 439 884T312 764T236 604T209 434Z" />
<glyph unicode="r" glyph-name="r" horiz-adv-x="681" d="M-10 0L211 1059H375L324 831H328Q470 1083 713 1083Q720 1083 732 1084T755 1085T774 1083L733 897Q717 899 682 899Q618 899 578 889Q444 854 352 717Q301 643 264 469L164 0H-10Z" />
<glyph unicode="s" glyph-name="s" horiz-adv-x="985" d="M901 748H727Q733 834 669 882T508 930Q465 930 428 924T356 903T303 861T283 795Q283 774 290 757T314 723T347 695T394 669T444 647T502 624T561 600Q623 575 665 552T752 494T819 410T842 303Q842 235
817 179T749 86T651 24T534 -13T410 -25Q315 -25 240 -7T105 52T13 164T-18 334H156Q153 288 166 252T205 194T266 156T341 135T426 129Q524 129 596 168T668 291Q668 310 661 327T645 357T616 384T582 407T538 430T492 450T441 471T389 492Q340 511 305 527T231
570T167 624T126 692T109 778Q109 872 167 943T313 1049T502 1083Q563 1083 619 1072T727 1036T817 973T878 878T901 748Z" />
<glyph unicode="t" glyph-name="t" horiz-adv-x="645" d="M518 1372L453 1059H664L631 905H420L289 283Q288 274 287 261T284 236T283 213Q283 141 387 141Q426 141 487 160L457 0Q396 -12 334 -12Q96 -12 96 160Q96 193 106 248L246 905H68L100 1059H279L344 1372H518Z" />
<glyph unicode="u" glyph-name="u" horiz-adv-x="1138" d="M1065 1059L842 0H674L707 160H702Q637 72 537 24T326 -25Q176 -25 104 41T31 248Q31 318 61 455L190 1059H365L229 440Q205 323 205 276Q205 204 256 167T389 129Q528 129 633 231T768 473L891 1059H1065Z" />
<glyph unicode="v" glyph-name="v" horiz-adv-x="985" d="M1012 1059L424 0H238L86 1059H270L360 178H365L823 1059H1012Z" />
<glyph unicode="w" glyph-name="w" horiz-adv-x="1554" d="M1561 1059L1014 0H829L776 823H772L393 0H209L84 1059H268L334 217H338L719 1059H915L967 217H971L1372 1059H1561Z" />
<glyph unicode="x" glyph-name="x" horiz-adv-x="985" d="M-135 0L360 561L125 1059H326L485 674L801 1059H1012L557 547L827 0H629L436 434L76 0H-135Z" />
<glyph unicode="y" glyph-name="y" horiz-adv-x="985" d="M1034 1059L334 -180Q303 -230 282 -259T228 -326T164 -382T89 -416T-8 -430Q-77 -430 -129 -403L-98 -262Q-54 -291 2 -291Q57 -291 94 -262T166 -176L272 0L86 1059H272L395 217H399L844 1059H1034Z" />
<glyph unicode="z" glyph-name="z" d="M-109 0L-84 131L653 905H84L115 1059H920L893 934L150 154H782L754 0H-109Z" />
<glyph unicode="{" glyph-name="braceleft" horiz-adv-x="681" d="M809 1497L782 1374H680Q582 1374 545 1194L469 823Q455 756 423 702T354 618T286 571T233 549L231 543Q249 540 269 530T312 498T350 437T365 346Q365 331 352 268L276 -102Q270 -137 270 -172Q270
-225 284 -254T338 -283H440L414 -406H270Q201 -406 149 -357T96 -221Q96 -178 104 -137L182 236Q190 276 190 319Q190 388 153 431T61 475L92 614Q160 614 224 682T311 856L389 1229Q414 1351 497 1424T666 1497H809Z" />
<glyph unicode="|" glyph-name="bar" horiz-adv-x="454" d="M158 -438V1610H297V-438H158Z" />
<glyph unicode="}" glyph-name="braceright" horiz-adv-x="681" d="M-186 -406L-160 -283H-57Q39 -283 78 -102L154 268Q166 323 190 369T240 445T297 496T349 528T389 543L391 549Q373 552 353 562T311 594T273 654T258 745Q258 767 270 823L346 1194Q352 1228
352 1264Q352 1317 338 1345T285 1374H182L209 1497H352Q421 1497 473 1448T526 1313Q526 1270 518 1229L440 856Q432 815 432 772Q432 701 469 658T561 614L530 475Q463 475 399 408T311 236L233 -137Q209 -259 125 -332T-43 -406H-186Z" />
<glyph unicode="~" glyph-name="asciitilde" horiz-adv-x="1228" d="M1014 653L1087 551Q1064 519 1049 499T1008 453T958 412T901 386T831 375Q748 375 623 442Q577 468 551 481T478 508T387 522Q327 522 287 479T215 367L141 469Q233 645 397 645Q476 645 625
580Q643 572 694 547T777 510T834 498Q862 498 886 509T934 547T971 591T1008 644Q1012 650 1014 653Z" />
</font>
</defs>
</svg>
