<?xml version="1.0" standalone="no"?> <!DOCTYPE svg PUBLIC "-//W3C//DTD SVG 1.0//EN" "http://www.w3.org/TR/2001/REC-SVG-20010904/DTD/svg10.dtd" > <svg xmlns="http://www.w3.org/2000/svg" width="100%" height="100%">
<defs >
<font id="helveticaneuebold" horiz-adv-x="820" ><font-face
    font-family="HelveticaNeueLT Pro 57 Cn"
    units-per-em="2048"
    panose-1="2 11 7 6 3 5 2 3 2 4"
    ascent="1463"
    descent="-586"
    alphabetic="0" />
<missing-glyph horiz-adv-x="1048" d="M455 240H569V377H455V240ZM461 479H555Q555 586 567 627Q579 666 655 733Q731 802 757 856T784 979Q784 1099 713 1173T530 1247Q415 1247 341 1177T254 967L356 950Q368 1050 412 1097T524 1145Q588 1145 634 1095T680
971Q680 930 661 896T578 801Q515 740 483 680Q457 629 457 514L461 479ZM946 102H102V1366H946V102ZM1049 1470H0V0H1049V1470Z" />
<glyph unicode=" " glyph-name="space" horiz-adv-x="491" />
<glyph unicode="!" glyph-name="exclam" horiz-adv-x="606" d="M162 270H444V0H162V270ZM406 408H201L162 987V1462H444V987L406 408Z" />
<glyph unicode="&quot;" glyph-name="quotedbl" horiz-adv-x="948" d="M147 805V1462H401V805H147ZM547 805V1462H801V805H547Z" />
<glyph unicode="#" glyph-name="numbersign" horiz-adv-x="983" d="M408 836L377 586H575L608 836H408ZM0 356V586H178L211 836H61V1065H238L283 1421H479L436 1065H635L680 1421H879L834 1065H983V836H807L774 586H924V356H748L702 0H504L549 356H348L305 0H106L152
356H0Z" />
<glyph unicode="$" glyph-name="dollar" horiz-adv-x="983" d="M420 -207V-29Q321 -21 249 5T133 68T63 159T27 267T18 391V434H301Q301 383 304 350T319 280T356 221T420 188V602L317 639Q37 741 37 1032Q37 1219 136 1324T420 1450V1591H551V1450Q930 1416 930
1063V1034H647Q645 1118 624 1167T551 1233V846L713 780Q763 759 798 739T866 688T920 620T952 530T965 410Q965 194 862 90T551 -29V-207H420ZM420 905V1233Q319 1203 319 1077Q319 963 420 905ZM551 551V188Q611 202 640 246T670 352Q670 428 642 473T551 551Z"
/>
<glyph unicode="%" glyph-name="percent" horiz-adv-x="1593" d="M287 -63L1118 1485H1300L469 -63H287ZM272 1067Q272 998 274 959T286 885T314 837T362 823T410 837T438 885T450 958T453 1067Q453 1190 436 1242T362 1294Q338 1294 322 1284T296 1257T281 1210T274
1148T272 1067ZM55 954T55 1059T67 1232T113 1352T207 1427T362 1450T517 1427T611 1353T657 1233T670 1059T658 886T612 766T517 691T362 668T208 691T114 765T68 885ZM924 362Q924 468 936 536T982 656T1076 731T1231 754T1386 731T1480 657T1525 537T1538 362Q1538
257 1526 189T1480 69T1386 -6T1231 -29T1076 -6T982 68T937 188T924 362ZM1141 371Q1141 302 1143 263T1155 189T1182 141T1231 127T1279 141T1307 189T1318 262T1321 371Q1321 495 1305 546T1231 598T1158 547T1141 371Z" />
<glyph unicode="&amp;" glyph-name="ampersand" horiz-adv-x="1214" d="M653 778L872 481Q895 528 909 591T924 702H1178Q1178 483 1028 270L1221 0H907L825 113Q770 47 676 9T473 -29Q367 -29 285 -1T156 71T77 174T36 285T25 393Q25 629 319 815L268 891Q209
976 190 1032T170 1155Q170 1295 273 1378T543 1462Q723 1462 815 1377T907 1157Q907 1049 846 961T653 778ZM702 293L457 641Q374 576 341 519T307 393Q307 319 362 260T512 201Q629 201 702 293ZM412 1163Q412 1101 485 1004L520 954L573 999Q666 1078 666 1159Q666
1218 631 1250T537 1282Q482 1282 447 1251T412 1163Z" />
<glyph unicode="&apos;" glyph-name="quotesingle" horiz-adv-x="532" d="M139 805V1462H393V805H139Z" />
<glyph unicode="(" glyph-name="parenleft" horiz-adv-x="606" d="M389 1462H606Q479 1229 426 1018T373 543T426 69T606 -377H389Q102 78 102 543T389 1462Z" />
<glyph unicode=")" glyph-name="parenright" horiz-adv-x="606" d="M0 1462H217Q504 1008 504 543T217 -377H0Q127 -143 180 68T233 543T180 1017T0 1462Z" />
<glyph unicode="*" glyph-name="asterisk" horiz-adv-x="798" d="M315 1462H483V1200L733 1282L784 1122L535 1040L690 827L553 729L399 942L246 729L109 827L264 1040L14 1122L66 1282L315 1200V1462Z" />
<glyph unicode="+" glyph-name="plus" horiz-adv-x="1228" d="M487 0V391H96V645H487V1036H741V645H1133V391H741V0H487Z" />
<glyph unicode="," glyph-name="comma" horiz-adv-x="491" d="M111 319H381V53Q381 -35 370 -98T329 -215T245 -299T111 -338V-195Q162 -184 189 -139T217 -33V0H111V319Z" />
<glyph unicode="-" glyph-name="hyphen" horiz-adv-x="757" d="M90 713H668V471H90V713Z" />
<glyph unicode="." glyph-name="period" horiz-adv-x="491" d="M111 319H381V0H111V319Z" />
<glyph unicode="/" glyph-name="slash" horiz-adv-x="679" d="M-6 -29L457 1491H686L223 -29H-6Z" />
<glyph unicode="0" glyph-name="zero" horiz-adv-x="983" d="M37 676Q37 754 38 809T45 935T59 1056T84 1163T124 1260T181 1337T260 1399T362 1436T492 1450Q625 1450 711 1413T851 1290T925 1074T946 745Q946 452 913 310Q858 73 682 3Q602 -29 492 -29Q385
-29 309 -5T180 70T95 206T51 404T37 676ZM332 770V612Q332 426 346 332T394 201T492 164Q541 164 571 187T620 269T644 417T651 651V809Q651 995 637 1089T589 1220T492 1257Q396 1257 364 1156T332 770Z" />
<glyph unicode="1" glyph-name="one" horiz-adv-x="983" d="M668 0H373V1024H84V1217H111Q259 1217 343 1273T451 1450H668V0Z" />
<glyph unicode="2" glyph-name="two" horiz-adv-x="983" d="M930 229V0H37Q37 188 113 334T356 635L475 745Q570 828 598 894T627 1077Q627 1257 483 1257Q431 1257 397 1236T346 1172T325 1085T319 975H37V1030Q37 1450 487 1450Q704 1450 813 1349T922 1055Q922
914 871 809T696 594L532 442Q408 329 383 229H930Z" />
<glyph unicode="3" glyph-name="three" horiz-adv-x="983" d="M41 424H324Q326 288 359 226T485 164Q526 164 556 176T603 209T631 260T644 323T647 397Q647 451 640 491T613 568T554 625T457 645H358V838H455Q541 838 582 903T623 1067Q623 1168 589 1212T481
1257Q435 1257 405 1241T359 1190T338 1117T332 1022H61Q61 1235 169 1342T487 1450Q690 1450 797 1358T905 1077Q905 947 847 864T684 758V754Q942 711 942 412Q942 347 931 290T888 173T804 69T665 -1T461 -29Q254 -29 148 88T41 418V424Z" />
<glyph unicode="4" glyph-name="four" horiz-adv-x="983" d="M29 301V543L510 1450H815V530H954V301H815V0H545V301H29ZM545 530V1081H541L258 530H545Z" />
<glyph unicode="5" glyph-name="five" horiz-adv-x="983" d="M870 1421V1192H336L305 862H309Q389 971 575 971Q656 971 719 945T821 875T885 770T920 645T930 508Q930 407 918 329T873 181T789 67T656 -3T465 -29Q359 -29 279 -2T155 65T82 163T46 269T37 375V414H319Q319
176 463 176Q553 176 594 245T635 459Q635 638 600 702T465 766Q404 766 369 731T326 633H61L115 1421H870Z" />
<glyph unicode="6" glyph-name="six" horiz-adv-x="983" d="M338 451Q338 383 344 336T367 247T417 185T500 164Q541 164 570 179T617 217T643 280T656 357T659 451Q659 598 622 661T500 725Q412 725 375 662T338 451ZM920 1081H637Q637 1169 606 1213T504 1257Q458
1257 426 1239T374 1190T343 1110T328 1010T324 889V817H328Q366 876 436 909T600 942T763 909T873 814T934 671T954 489Q954 -29 485 -29Q400 -29 333 -10T218 43T136 127T81 232T49 360T33 499T29 649Q29 928 52 1056Q95 1300 250 1390Q354 1450 516 1450Q581
1450 637 1439T746 1400T835 1332T895 1226T920 1081Z" />
<glyph unicode="7" glyph-name="seven" horiz-adv-x="983" d="M45 1421H938V1196Q766 954 659 640T512 0H203Q239 293 348 594T655 1167H45V1421Z" />
<glyph unicode="8" glyph-name="eight" horiz-adv-x="983" d="M324 414Q324 358 331 316T357 238T409 183T492 164Q585 164 622 230T659 414Q659 470 652 512T626 590T574 645T492 664Q399 664 362 598T324 414ZM348 1059Q348 958 386 907T492 856T597 907T635
1059Q635 1257 492 1257Q348 1257 348 1059ZM29 410Q29 551 92 647T274 768V772Q200 790 151 839T84 941T66 1051Q66 1450 492 1450T918 1051Q918 961 866 880T709 772V768Q828 744 891 648T954 410Q954 352 945 300T907 185T829 77T694 2T492 -29Q376 -29 289
1T154 77T77 184T38 299T29 410Z" />
<glyph unicode="9" glyph-name="nine" horiz-adv-x="983" d="M324 971Q324 823 361 760T483 696Q571 696 608 759T645 971Q645 1039 639 1086T616 1175T566 1236T483 1257Q432 1257 399 1237T351 1174T330 1086T324 971ZM63 338H346Q346 252 377 208T479 164Q525
164 557 182T609 231T640 311T655 411T659 532V602H655Q617 545 547 512T383 479T220 512T110 608T49 750T29 932Q29 1450 498 1450Q582 1450 650 1431T765 1378T846 1294T901 1188T934 1061T950 922T954 772Q954 491 930 360Q885 117 728 28Q625 -29 467 -29Q402
-29 346 -18T237 20T148 88T88 193T63 338Z" />
<glyph unicode=":" glyph-name="colon" horiz-adv-x="491" d="M111 748V1067H381V748H111ZM111 0V319H381V0H111Z" />
<glyph unicode=";" glyph-name="semicolon" horiz-adv-x="491" d="M111 1067H381V748H111V1067ZM111 319H381V53Q381 -35 370 -98T329 -215T245 -299T111 -338V-195Q162 -184 189 -139T217 -33V0H111V319Z" />
<glyph unicode="&lt;" glyph-name="less" horiz-adv-x="1228" d="M96 410V627L1133 1053V799L440 518L1133 238V-16L96 410Z" />
<glyph unicode="=" glyph-name="equal" horiz-adv-x="1228" d="M96 168V422H1133V168H96ZM96 614V868H1133V614H96Z" />
<glyph unicode="&gt;" glyph-name="greater" horiz-adv-x="1228" d="M96 -16V238L788 518L96 799V1053L1133 627V410L96 -16Z" />
<glyph unicode="?" glyph-name="question" horiz-adv-x="985" d="M332 270H614V0H332V270ZM344 1010H74V1057Q74 1248 178 1363T479 1479Q691 1479 801 1374T911 1083Q911 995 882 921T782 764L700 672Q644 609 622 560T600 436V406H346V485Q346 587 374 657T473
807L551 895Q629 981 629 1112Q629 1193 593 1239T489 1286Q344 1286 344 1061V1010Z" />
<glyph unicode="@" glyph-name="at" horiz-adv-x="1638" d="M1069 999L1096 1108H1276L1157 596Q1145 537 1145 512Q1145 471 1186 471Q1217 471 1253 497T1322 567T1377 681T1399 827Q1399 960 1322 1069T1121 1238T854 1298Q736 1298 630 1251T450 1125T333
943T289 729Q289 576 368 445T581 239T868 164Q1095 164 1313 295H1495Q1266 -29 819 -29Q664 -29 524 31T281 193T119 435T59 731T119 1026T281 1269T523 1431T819 1491Q972 1491 1110 1446T1353 1322T1518 1125T1579 870Q1579 747 1538 644T1437 477T1303 367T1170
304T1065 285Q941 285 932 393H928Q822 285 682 285Q627 285 574 309T478 376T409 487T383 633Q383 760 435 874T590 1062T821 1137Q985 1137 1069 999ZM612 668Q612 599 653 551T758 502Q858 502 926 584T995 764Q995 830 950 875T842 920Q780 920 726 880T642
783T612 668Z" />
<glyph unicode="A" glyph-name="A" horiz-adv-x="1138" d="M567 1208L426 551H713L571 1208H567ZM0 0L387 1462H752L1139 0H831L764 309H375L307 0H0Z" />
<glyph unicode="B" glyph-name="B" horiz-adv-x="1138" d="M397 657V217H512Q626 217 688 267T750 438Q750 558 690 607T524 657H397ZM397 1245V862H481Q605 862 661 906T717 1055Q717 1158 667 1201T504 1245H397ZM102 0V1462H596Q691 1462 764 1443T894 1383T981
1268T1012 1092Q1012 971 956 887T791 772V768Q915 750 986 662T1057 428Q1057 357 1043 296T995 179T910 85T779 23T600 0H102Z" />
<glyph unicode="C" glyph-name="C" horiz-adv-x="1099" d="M1022 969H727Q727 1132 688 1203T551 1274Q442 1274 405 1152T367 711Q367 547 378 443T414 283T471 208T555 188Q598 188 628 202T685 254T725 368T739 559H1034Q1034 456 1023 375T982 216T901 86T766
3T569 -29Q487 -29 421 -15T305 28T218 94T155 185T113 295T88 425T76 570T72 731Q72 822 75 892T87 1037T112 1167T154 1277T217 1368T304 1434T420 1477T569 1491Q657 1491 727 1473T843 1426T924 1352T976 1265T1005 1165T1019 1066T1022 969Z" />
<glyph unicode="D" glyph-name="D" horiz-adv-x="1175" d="M412 1245V217H543Q605 217 647 234T717 287T761 387T782 535T788 743Q788 834 785 896T773 1020T746 1119T702 1187T633 1231T537 1245H412ZM117 0V1462H600Q686 1462 755 1445T874 1398T961 1319T1021
1214T1058 1081T1077 928T1083 752Q1083 592 1069 475T1020 265T927 116T784 30T582 0H117Z" />
<glyph unicode="E" glyph-name="E" horiz-adv-x="985" d="M102 1462H920V1221H397V877H889V635H397V242H940V0H102V1462Z" />
<glyph unicode="F" glyph-name="F" horiz-adv-x="948" d="M102 0V1462H920V1221H397V877H889V635H397V0H102Z" />
<glyph unicode="G" glyph-name="G" horiz-adv-x="1138" d="M1034 1028H752Q752 1086 736 1139T681 1233T584 1274Q477 1274 430 1155T383 762Q383 619 391 522T420 345T483 227T586 188Q649 188 708 251T768 422V571H573V788H1051V0H834V135H829Q776 49 702 10T522
-29Q432 -29 364 -8T249 60T170 169T120 322T95 514T88 748Q88 939 112 1072T192 1302T344 1445T580 1491Q815 1491 924 1374T1034 1028Z" />
<glyph unicode="H" glyph-name="H" horiz-adv-x="1138" d="M102 0V1462H397V903H741V1462H1036V0H741V649H397V0H102Z" />
<glyph unicode="I" glyph-name="I" horiz-adv-x="528" d="M412 0H117V1462H412V0Z" />
<glyph unicode="J" glyph-name="J" horiz-adv-x="948" d="M563 1462H858V410Q858 179 751 75T418 -29Q327 -29 258 -6T147 55T78 149T41 266T31 399V463H301V418Q301 295 328 242T432 188Q509 188 536 241T563 418V1462Z" />
<glyph unicode="K" glyph-name="K" horiz-adv-x="1099" d="M102 1462H397V877H401L774 1462H1094L696 836L1139 0H807L506 600L397 434V0H102V1462Z" />
<glyph unicode="L" glyph-name="L" horiz-adv-x="948" d="M920 0H102V1462H397V242H920V0Z" />
<glyph unicode="M" glyph-name="M" horiz-adv-x="1515" d="M109 0V1462H547L756 430H760L971 1462H1407V0H1137V1167H1133L872 0H643L383 1167H379V0H109Z" />
<glyph unicode="N" glyph-name="N" horiz-adv-x="1175" d="M102 1462H442L799 461H803V1462H1073V0H737L377 1024H373V0H102V1462Z" />
<glyph unicode="O" glyph-name="O" horiz-adv-x="1138" d="M72 731Q72 822 75 892T87 1037T112 1167T154 1277T217 1368T304 1434T420 1477T569 1491Q642 1491 702 1479T810 1447T895 1393T959 1321T1005 1231T1036 1126T1055 1006T1064 875T1067 731Q1067 627
1063 549T1046 387T1011 245T951 132T862 44T736 -9T569 -29Q487 -29 421 -15T305 28T218 94T155 185T113 295T88 425T76 570T72 731ZM367 731Q367 626 370 554T381 416T403 312T439 243T493 201T569 188T644 200T699 242T736 311T758 416T769 553T772 731Q772
835 769 907T758 1045T736 1150T699 1219T645 1261T569 1274T494 1262T440 1220T403 1150T381 1045T370 908T367 731Z" />
<glyph unicode="P" glyph-name="P" horiz-adv-x="1062" d="M397 1245V801H528Q619 801 672 856T725 1020Q725 1132 677 1188T520 1245H397ZM102 0V1462H618Q727 1462 807 1425T933 1324T999 1186T1020 1024Q1020 804 896 694T555 584H397V0H102Z" />
<glyph unicode="Q" glyph-name="Q" horiz-adv-x="1138" d="M367 731Q367 626 370 554T381 416T403 312T439 243T493 201T569 188T644 200T699 242T736 311T758 416T769 553T772 731Q772 835 769 907T758 1045T736 1150T699 1219T645 1261T569 1274T494 1262T440
1220T403 1150T381 1045T370 908T367 731ZM1112 -23L938 -180L764 0Q718 -16 674 -23Q628 -29 569 -29Q487 -29 421 -15T305 28T218 94T155 185T113 295T88 425T76 570T72 731Q72 822 75 892T87 1037T112 1167T154 1277T217 1368T304 1434T420 1477T569 1491Q642
1491 702 1479T810 1447T895 1393T959 1321T1005 1231T1036 1126T1055 1006T1064 875T1067 731Q1067 518 1044 376T954 137L1112 -23Z" />
<glyph unicode="R" glyph-name="R" horiz-adv-x="1138" d="M102 0V1462H647Q833 1462 934 1367T1036 1085Q1036 777 793 725V721Q854 713 894 693T960 643T1000 557T1020 438T1028 274Q1030 147 1042 91T1094 12V0H774Q741 44 737 154L729 434Q724 524 683 571T555
618H397V0H102ZM397 1245V823H520Q630 823 685 875T741 1042Q741 1245 537 1245H397Z" />
<glyph unicode="S" glyph-name="S" horiz-adv-x="1062" d="M45 457H340V414Q340 302 382 245T535 188Q608 188 659 235T711 369Q711 465 655 516T449 618Q245 687 156 786T66 1061Q66 1273 185 1382T518 1491Q619 1491 700 1469T842 1400T937 1277T971 1098V1057H688Q688
1165 650 1219T528 1274Q360 1274 360 1104Q360 1032 391 987T512 905L739 807Q899 736 958 649T1018 420Q1018 193 887 82T510 -29Q267 -29 156 79T45 397V457Z" />
<glyph unicode="T" glyph-name="T" horiz-adv-x="983" d="M25 1462H958V1221H639V0H344V1221H25V1462Z" />
<glyph unicode="U" glyph-name="U" horiz-adv-x="1101" d="M84 1462H379V442Q379 321 416 255T551 188T685 254T723 442V1462H1018V442Q1018 334 992 251T923 116T819 31T692 -16T551 -29Q473 -29 410 -18T284 24T179 107T110 243T84 442V1462Z" />
<glyph unicode="V" glyph-name="V" horiz-adv-x="1062" d="M6 1462H322L528 381H535L752 1462H1057L721 0H342L6 1462Z" />
<glyph unicode="W" glyph-name="W" horiz-adv-x="1556" d="M283 0L16 1462H299L461 381H465L637 1462H920L1092 381H1096L1257 1462H1540L1274 0H944L780 1061H776L612 0H283Z" />
<glyph unicode="X" glyph-name="X" horiz-adv-x="1099" d="M377 739L41 1462H367L555 989L741 1462H1063L723 739L1087 0H756L545 496L336 0H12L377 739Z" />
<glyph unicode="Y" glyph-name="Y" horiz-adv-x="1064" d="M6 1462H338L530 897H535L739 1462H1059L680 575V0H385V575L6 1462Z" />
<glyph unicode="Z" glyph-name="Z" horiz-adv-x="985" d="M49 0V215L588 1221H86V1462H928V1239L381 242H936V0H49Z" />
<glyph unicode="[" glyph-name="bracketleft" horiz-adv-x="645" d="M164 -377V1462H633V1257H418V-172H633V-377H164Z" />
<glyph unicode="\" glyph-name="backslash" horiz-adv-x="679" d="M457 -29L-6 1491H223L686 -29H457Z" />
<glyph unicode="]" glyph-name="bracketright" horiz-adv-x="645" d="M12 -377V-172H227V1257H12V1462H481V-377H12Z" />
<glyph unicode="^" glyph-name="asciicircum" horiz-adv-x="1228" d="M369 633H115L500 1421H729L1114 633H860L614 1139L369 633Z" />
<glyph unicode="_" glyph-name="underscore" horiz-adv-x="1024" d="M1024 -256H0V-154H1024V-256Z" />
<glyph unicode="`" glyph-name="grave" horiz-adv-x="454" d="M360 1233H168L-33 1528H250L360 1233Z" />
<glyph unicode="a" glyph-name="a" horiz-adv-x="985" d="M346 764H92V791Q92 883 122 950T206 1056T328 1112T479 1130Q578 1130 649 1114T765 1069T835 997T870 905T879 793V213Q879 136 886 94T913 0H643Q624 37 608 115H604Q557 32 494 2T324 -29Q253 -29
200 -1T116 74T72 174T57 287Q57 440 121 515T336 631L496 674Q559 690 583 718T608 803Q608 938 477 938Q412 938 379 901T346 795V764ZM608 334V551Q560 513 487 496Q402 477 365 435T328 317Q328 249 354 207T434 164Q501 164 554 207T608 334Z" />
<glyph unicode="b" glyph-name="b" horiz-adv-x="1024" d="M94 0V1462H377V999H381Q426 1066 483 1098T618 1130Q793 1130 874 993T956 551T875 109T618 -29Q533 -29 475 5T369 117H365V0H94ZM377 551Q377 454 383 392T404 281T450 210T526 188Q571 188 600 210T646
280T668 392T674 551T668 710T646 821T601 891T526 913Q489 913 463 898T420 856T394 782T381 682T377 551Z" />
<glyph unicode="c" glyph-name="c" horiz-adv-x="948" d="M895 705H625Q625 926 498 926Q399 926 368 841T336 549Q336 335 366 250T487 164Q560 164 592 225T625 422H895Q895 199 795 85T475 -29Q366 -29 290 -1T159 95T79 274T53 551T85 831T179 1011T318 1102T500
1130Q693 1130 794 1018T895 705Z" />
<glyph unicode="d" glyph-name="d" horiz-adv-x="1024" d="M659 0V117H655Q608 39 550 5T406 -29Q231 -29 150 108T68 551T149 993T406 1130Q484 1130 541 1098T643 999H647V1462H930V0H659ZM350 647T350 551T356 392T378 281T423 210T498 188Q544 188 574 210T619
280T641 391T647 551Q647 628 644 681T631 781T605 855T562 898T498 913Q452 913 423 891T378 821T356 710Z" />
<glyph unicode="e" glyph-name="e" horiz-adv-x="948" d="M895 508H336V420Q336 310 369 237T475 164Q545 164 578 213T625 371H879Q871 174 774 73T479 -29Q412 -29 357 -18T260 13T187 63T133 126T96 203T73 286T60 377T54 468T53 561Q53 659 61 734T98 887T172
1015T300 1098T492 1130Q612 1130 693 1092T817 976T878 803T895 571V508ZM336 676H625Q619 816 591 877T481 938Q428 938 394 904T348 823T336 719V676Z" />
<glyph unicode="f" glyph-name="f" horiz-adv-x="606" d="M156 0V909H12V1102H156V1227Q156 1369 231 1430T451 1491Q526 1491 602 1485V1284Q592 1286 573 1286H547Q487 1286 463 1266T438 1198V1102H602V909H438V0H156Z" />
<glyph unicode="g" glyph-name="g" horiz-adv-x="1024" d="M354 516Q354 453 359 407T379 317T423 252T496 229Q554 229 589 270T636 378T649 545Q649 748 617 830T502 913Q411 913 383 830T354 516ZM649 1102H920V55Q920 -168 813 -272T461 -377Q281 -377 184
-300T86 -82H356Q356 -134 399 -166Q446 -197 494 -197Q649 -197 649 2V147H645Q602 85 539 49T410 12Q238 12 155 143T72 569Q72 630 75 681T87 792T112 898T153 990T215 1064T302 1112T418 1130Q486 1130 546 1095T645 979H649V1102Z" />
<glyph unicode="h" glyph-name="h" horiz-adv-x="1024" d="M94 0V1462H377V989H381Q462 1130 649 1130Q930 1130 930 817V0H647V760Q647 843 619 878T526 913Q377 913 377 731V0H94Z" />
<glyph unicode="i" glyph-name="i" horiz-adv-x="491" d="M104 1237V1479H387V1237H104ZM104 0V1102H387V0H104Z" />
<glyph unicode="j" glyph-name="j" horiz-adv-x="491" d="M104 1237V1479H387V1237H104ZM104 20V1102H387V-76Q387 -223 316 -291T63 -360Q31 -360 -51 -356V-152Q-39 -156 -29 -156H-6Q64 -156 84 -118T104 20Z" />
<glyph unicode="k" glyph-name="k" horiz-adv-x="1024" d="M104 1462H387V690H391L676 1102H987L670 668L1034 0H723L487 453L387 322V0H104V1462Z" />
<glyph unicode="l" glyph-name="l" horiz-adv-x="491" d="M104 0V1462H387V0H104Z" />
<glyph unicode="m" glyph-name="m" horiz-adv-x="1552" d="M94 0V1102H365V989H369Q422 1064 488 1097T647 1130Q746 1130 812 1085T901 954H905Q937 1040 1009 1085T1184 1130Q1458 1130 1458 801V0H1176V770Q1176 841 1150 877T1065 913Q995 913 957 866T918
725V0H635V770Q635 841 609 877T524 913Q454 913 416 866T377 725V0H94Z" />
<glyph unicode="n" glyph-name="n" horiz-adv-x="1024" d="M94 0V1102H365V973H369Q455 1130 649 1130Q930 1130 930 817V0H647V760Q647 843 619 878T526 913Q377 913 377 731V0H94Z" />
<glyph unicode="o" glyph-name="o" horiz-adv-x="983" d="M57 551Q57 844 157 987T492 1130Q592 1132 666 1109T790 1041T870 923T913 761T926 551Q926 258 826 115T492 -29Q367 -31 282 4T148 115T78 296T57 551ZM340 615T340 551T341 444T348 352T363 273T390
216T432 177T492 164Q576 164 609 252T643 551Q643 761 610 849T492 938Q458 938 433 926T391 887T364 830T348 751T342 659Z" />
<glyph unicode="p" glyph-name="p" horiz-adv-x="1024" d="M94 -360V1102H365V985H369Q416 1063 474 1096T618 1130Q793 1130 874 993T956 551T875 109T618 -29Q540 -29 483 3T381 102H377V-360H94ZM377 551Q377 454 383 392T404 281T450 210T526 188Q571 188
600 210T646 280T668 392T674 551T668 710T646 821T601 891T526 913Q489 913 463 898T420 856T394 782T381 682T377 551Z" />
<glyph unicode="q" glyph-name="q" horiz-adv-x="1024" d="M647 -360V102H643Q598 35 541 3T406 -29Q231 -29 150 108T68 551T149 993T406 1130Q491 1130 549 1097T655 985H659V1102H930V-360H647ZM647 551Q647 628 644 681T631 781T605 855T562 898T498 913Q452
913 423 891T378 821T356 710T350 551T356 392T378 281T423 210T498 188Q544 188 574 210T619 280T641 391T647 551Z" />
<glyph unicode="r" glyph-name="r" horiz-adv-x="681" d="M94 0V1102H365V954H369Q463 1130 623 1130Q640 1130 674 1126V856Q612 860 586 860Q547 860 512 850T445 817T396 755T377 662V0H94Z" />
<glyph unicode="s" glyph-name="s" horiz-adv-x="909" d="M47 360H301V324Q301 250 339 207T449 164Q517 164 554 197T592 295Q592 344 565 372T489 420L291 492Q172 534 114 609T55 799Q55 869 78 927T149 1031T276 1104T461 1130Q650 1130 744 1050T838 817V772H584Q584
859 556 898T459 938Q402 938 364 907T326 819Q326 775 353 744T449 690L618 633Q751 588 806 516T862 317Q862 149 750 60T453 -29Q336 -29 255 -5T130 67T66 176T47 322V360Z" />
<glyph unicode="t" glyph-name="t" horiz-adv-x="606" d="M156 1102V1417H438V1102H602V909H438V313Q438 245 458 219T539 193Q566 193 602 197V0Q476 -12 418 -12Q334 -12 284 1T204 51T166 139T156 279V909H12V1102H156Z" />
<glyph unicode="u" glyph-name="u" horiz-adv-x="1024" d="M659 0V129H655Q569 -29 375 -29Q94 -29 94 285V1102H377V342Q377 258 405 223T498 188Q647 188 647 371V1102H930V0H659Z" />
<glyph unicode="v" glyph-name="v" horiz-adv-x="909" d="M467 313L616 1102H899L623 0H295L10 1102H305L463 313H467Z" />
<glyph unicode="w" glyph-name="w" horiz-adv-x="1441" d="M254 0L14 1102H297L426 319H430L567 1102H874L1020 319H1024L1157 1102H1427L1190 0H868L723 782H719L582 0H254Z" />
<glyph unicode="x" glyph-name="x" horiz-adv-x="946" d="M473 770L625 1102H920L633 567L932 0H637L473 360L309 0H14L313 567L27 1102H322L473 770Z" />
<glyph unicode="y" glyph-name="y" horiz-adv-x="909" d="M94 -360V-150Q131 -156 168 -156Q243 -156 278 -117T319 0L10 1102H305L469 340H473L616 1102H899L633 74Q607 -26 586 -91T538 -207T483 -286T414 -331T325 -354T209 -360H94Z" />
<glyph unicode="z" glyph-name="z" horiz-adv-x="872" d="M49 0V217L489 872H70V1102H823V885L383 229H823V0H49Z" />
<glyph unicode="{" glyph-name="braceleft" horiz-adv-x="645" d="M61 459V627Q114 627 155 675T197 793V1188Q197 1320 251 1391T410 1462H592V1257H530Q485 1257 468 1218T451 1110V770Q451 679 411 618T303 545V541Q370 528 410 467T451 315V-25Q451 -172 530
-172H592V-377H410Q306 -377 252 -306T197 -102V293Q197 363 156 411T61 459Z" />
<glyph unicode="|" glyph-name="bar" horiz-adv-x="454" d="M100 -29V1491H354V-29H100Z" />
<glyph unicode="}" glyph-name="braceright" horiz-adv-x="645" d="M53 -377V-172H115Q195 -172 195 -25V315Q195 406 235 467T342 541V545Q275 557 235 618T195 770V1110Q195 1257 115 1257H53V1462H236Q340 1462 394 1391T449 1188V793Q449 722 490 675T584
627V459Q531 459 490 411T449 293V-102Q449 -234 394 -305T236 -377H53Z" />
<glyph unicode="~" glyph-name="asciitilde" horiz-adv-x="1228" d="M1014 715L1087 498Q995 322 836 322Q771 322 717 339T594 391Q512 434 473 447T399 461Q344 461 290 415T215 322L141 539Q236 715 393 715Q501 715 616 655Q709 607 749 591T829 575Q884 575
938 622T1014 715Z" />
</font>
</defs>
</svg>
